<?xml version="1.0" standalone="no"?>
<!DOCTYPE svg PUBLIC "-//W3C//DTD SVG 20010904//EN"
 "http://www.w3.org/TR/2001/REC-SVG-20010904/DTD/svg10.dtd">
<svg version="1.0" xmlns="http://www.w3.org/2000/svg"
 width="748.000000pt" height="748.000000pt" viewBox="0 0 748.000000 748.000000"
 preserveAspectRatio="xMidYMid meet">
<metadata>
Created by potrace 1.14, written by Peter Selinger 2001-2017
</metadata>
<g transform="translate(0.000000,748.000000) scale(0.100000,-0.100000)"
fill="#000000" stroke="none">
<path d="M2537 4359 c-197 -30 -351 -148 -446 -343 -57 -117 -81 -213 -86
-343 -9 -285 118 -468 353 -510 61 -11 185 -5 257 12 59 13 196 73 218 95 8 7
-58 150 -69 150 -3 0 -20 -11 -36 -26 -131 -109 -316 -115 -402 -13 -67 79
-97 187 -92 329 11 305 179 516 396 497 66 -5 144 -37 183 -75 l29 -27 20 25
c11 14 39 46 63 72 l43 46 -21 21 c-73 67 -271 111 -410 90z"/>
<path d="M6953 4344 c-83 -21 -145 -55 -199 -109 -66 -65 -89 -129 -88 -240 1
-68 5 -87 28 -127 15 -25 46 -61 69 -80 39 -32 142 -98 152 -98 10 0 95 -63
123 -91 56 -58 51 -169 -11 -227 -91 -86 -262 -77 -371 18 -20 18 -38 31 -40
29 -6 -6 -96 -160 -96 -164 0 -8 79 -48 132 -66 233 -78 480 -14 590 152 45
69 59 114 63 203 7 136 -44 203 -240 321 -65 39 -128 84 -141 100 -76 100 -5
235 127 241 61 2 153 -24 205 -59 l38 -27 43 68 c23 37 43 72 43 79 0 15 -92
59 -167 78 -68 18 -187 18 -260 -1z"/>
<path d="M647 4342 c-46 -3 -49 -5 -66 -45 -10 -23 -65 -139 -121 -257 -56
-118 -115 -242 -130 -275 -15 -33 -47 -100 -70 -150 -23 -49 -57 -121 -75
-160 -18 -38 -54 -115 -79 -169 -26 -54 -44 -102 -40 -105 3 -3 46 -6 96 -6
l91 -1 17 41 c10 22 45 97 79 168 l61 127 155 0 c168 0 160 3 169 -60 7 -45
45 -240 51 -260 4 -13 24 -16 112 -15 102 0 108 1 107 20 -2 23 -30 167 -45
235 -6 25 -13 56 -15 70 -3 14 -28 138 -55 275 -28 138 -53 259 -55 270 -2 11
-11 54 -19 95 -16 77 -20 101 -31 158 -3 18 -11 35 -17 39 -12 7 -54 9 -120 5z
m34 -651 l4 -25 -100 0 -100 -1 68 180 c37 99 70 187 73 195 4 8 17 -61 29
-155 13 -93 24 -181 26 -194z"/>
<path d="M1280 4340 c-32 -3 -54 -10 -53 -16 9 -49 4 -125 -17 -254 -7 -45
-20 -146 -25 -195 -2 -15 -16 -117 -21 -146 -2 -15 -6 -47 -9 -70 -5 -45 -27
-208 -46 -339 -5 -41 -11 -91 -12 -110 l-2 -35 230 1 c253 1 306 8 402 55 170
83 244 281 163 440 -24 46 -92 105 -139 120 -44 14 -63 29 -36 29 32 0 103 40
144 80 54 54 82 117 87 196 8 141 -76 223 -246 241 -64 7 -355 9 -420 3z m382
-171 c55 -23 76 -105 44 -179 -32 -77 -95 -106 -227 -104 l-74 1 0 34 c1 48
28 262 34 264 17 6 203 -8 223 -16z m-49 -468 c106 -51 125 -192 39 -292 -50
-59 -87 -71 -219 -75 l-111 -2 3 29 c7 54 16 114 20 139 2 14 7 48 10 75 10
92 18 140 23 149 2 5 46 6 97 4 68 -4 105 -11 138 -27z"/>
<path d="M3449 4338 c-11 -4 -17 -12 -14 -18 7 -12 8 -104 1 -137 -3 -12 -7
-50 -11 -84 -4 -35 -8 -66 -10 -69 -2 -3 -6 -39 -10 -80 -3 -40 -8 -76 -9 -79
-2 -3 -7 -31 -10 -62 -4 -31 -8 -65 -10 -75 -2 -11 -7 -46 -10 -79 -4 -33 -10
-76 -12 -95 -20 -137 -29 -203 -40 -295 -3 -33 -8 -67 -9 -76 -3 -13 10 -15
81 -15 92 1 89 -2 98 71 3 22 10 78 16 125 6 47 13 97 16 111 2 15 6 47 9 70
3 24 17 127 31 229 15 102 27 209 27 239 l2 53 79 -163 c271 -557 359 -734
366 -739 6 -4 132 -5 161 -1 3 1 16 74 28 164 12 89 24 180 28 202 3 22 6 49
7 60 3 22 15 115 21 155 3 14 7 48 10 75 3 28 8 61 10 75 2 14 7 50 10 80 4
30 9 64 11 75 2 11 7 45 10 75 3 30 11 90 18 133 14 88 25 79 -93 79 -35 -1
-67 -4 -71 -9 -5 -4 -11 -42 -15 -83 -4 -41 -8 -77 -10 -80 -1 -3 -6 -32 -9
-65 -4 -33 -9 -67 -11 -75 -2 -8 -6 -42 -10 -75 -3 -33 -8 -71 -10 -85 -3 -14
-7 -41 -9 -60 -3 -19 -8 -57 -11 -85 -8 -55 -13 -104 -15 -150 l-1 -30 -12 25
c-85 189 -379 770 -389 771 -109 4 -213 2 -229 -3z"/>
<path d="M4527 4293 c4 -42 -8 -174 -32 -333 -2 -14 -9 -63 -15 -110 -6 -47
-13 -96 -15 -110 -4 -25 -21 -153 -30 -225 -3 -22 -8 -51 -10 -64 -2 -14 -7
-52 -10 -85 -3 -34 -8 -68 -10 -76 -2 -8 -7 -38 -10 -65 l-5 -50 329 0 c207 0
334 4 340 10 5 6 13 42 16 80 l7 70 -231 -1 -231 -1 4 26 c3 14 8 55 12 91 4
36 8 67 9 70 1 3 5 37 10 75 5 39 9 73 11 78 1 4 2 11 3 15 0 5 80 8 176 8
131 -1 176 2 179 11 3 7 8 43 11 81 l7 68 -177 -1 -177 -1 6 40 c4 23 9 64 11
91 3 28 7 59 9 70 3 11 8 43 12 70 3 28 7 52 9 55 2 3 107 5 234 4 205 -1 231
1 232 15 0 9 2 25 4 36 2 11 7 39 10 63 5 41 5 42 -25 43 -16 0 -173 1 -349 2
l-319 2 5 -52z"/>
<path d="M5282 4342 c-29 -2 -51 -6 -48 -10 2 -4 7 -29 10 -57 4 -27 11 -86
17 -130 5 -44 12 -96 14 -115 2 -19 12 -91 20 -160 9 -69 18 -141 21 -160 2
-19 6 -51 9 -70 3 -19 7 -54 10 -77 9 -80 14 -118 19 -153 3 -19 8 -57 12 -85
3 -27 7 -59 9 -70 1 -11 3 -35 4 -52 l1 -33 108 0 107 0 123 315 c68 173 139
361 157 418 l33 102 2 -85 c1 -47 3 -92 5 -101 1 -8 6 -40 9 -70 4 -30 9 -70
11 -89 3 -19 7 -59 11 -88 3 -29 7 -61 9 -70 1 -9 6 -46 10 -82 4 -36 9 -73
10 -82 2 -9 7 -48 10 -85 4 -37 10 -72 14 -76 4 -4 54 -6 111 -5 l103 3 44
115 c24 63 57 151 74 195 16 44 34 89 39 100 5 11 28 70 50 130 23 61 46 119
51 130 30 69 188 489 185 493 -5 5 -166 5 -171 1 -10 -11 -243 -613 -281 -724
-29 -86 -44 -120 -44 -100 -3 76 -15 206 -24 265 -5 27 -12 85 -21 165 -3 28
-8 61 -10 75 -2 14 -7 52 -11 85 -3 33 -8 69 -10 80 -2 11 -7 47 -10 80 -3 33
-10 64 -14 69 -7 7 -90 11 -166 7 -18 -1 -30 -23 -74 -133 -29 -73 -59 -146
-66 -163 -7 -16 -41 -102 -77 -190 -60 -151 -73 -191 -110 -325 l-15 -55 -2
55 c-1 30 -3 62 -5 71 -1 9 -6 47 -9 85 -4 39 -8 79 -10 89 -2 11 -7 47 -10
80 -4 33 -9 71 -11 85 -12 82 -15 111 -20 160 -4 30 -8 66 -10 80 -6 42 -18
134 -18 148 0 6 -12 12 -26 13 -14 0 -42 1 -61 2 -19 1 -59 1 -88 -1z"/>
</g>
</svg>
